<svg width="24" height="24" viewBox="0 0 24 24" fill="none" xmlns="http://www.w3.org/2000/svg">
<path d="M12 5C8.13396 5 5 8.13396 5 12C5 15.866 8.13396 19 12 19C15.866 19 19 15.866 19 12C19 8.13396 15.866 5 12 5ZM12.4672 15.1911C12.4672 15.4819 12.282 15.5356 12.1797 15.5432H11.8352C11.5943 15.5432 11.55 15.362 11.5435 15.2614V10.798C11.5435 10.4652 11.9081 10.462 11.9081 10.462H12.0732C12.1601 10.4635 12.4672 10.4959 12.4672 10.8756V15.1911ZM11.984 9.60104C11.6585 9.60104 11.4277 9.34904 11.4277 9.03404C11.4277 8.70854 11.6693 8.45683 12.005 8.45683C12.3515 8.45683 12.5717 8.70883 12.5717 9.03404C12.5825 9.34904 12.3515 9.60104 11.984 9.60104Z" fill="#F25A3C"/>
</svg>
